<?xml version="1.0" encoding="UTF-8"?>
<svg version="1.1" xmlns="http://www.w3.org/2000/svg" width="1000" height="1000">
<path d="M0 0 C4.0980619 0.00259265 8.19612195 0.00016789 12.29418397 -0.00138617 C19.15418877 -0.00318599 26.01418267 -0.00085754 32.8741858 0.00395441 C40.75141387 0.00941683 48.62861611 0.00761118 56.50584358 0.00212801 C63.34487181 -0.00243755 70.18389236 -0.00303766 77.02292162 -0.00043333 C81.07519147 0.00110758 85.12744924 0.00138401 89.17971826 -0.00196981 C125.64010498 -0.02786683 157.327157 0.54585212 187.16105103 24.1343255 C188.15105103 24.7943255 189.14105103 25.4543255 190.16105103 26.1343255 C190.16105103 26.7943255 190.16105103 27.4543255 190.16105103 28.1343255 C191.15105103 28.4643255 192.14105103 28.7943255 193.16105103 29.1343255 C193.16105103 29.7943255 193.16105103 30.4543255 193.16105103 31.1343255 C193.73339478 31.350888 194.30573853 31.5674505 194.89542603 31.7905755 C197.90990663 33.57847434 199.38771561 35.78666825 201.41105103 38.6343255 C202.47066041 40.10385675 202.47066041 40.10385675 203.55167603 41.6030755 C205.16105103 44.1343255 205.16105103 44.1343255 205.16105103 46.1343255 C205.82105103 46.1343255 206.48105103 46.1343255 207.16105103 46.1343255 C214.07308795 57.55497534 218.07396482 69.16603873 221.16105103 82.1343255 C221.33409855 82.84002302 221.50714606 83.54572054 221.68543744 84.27280283 C222.29077336 87.9147981 222.30912899 91.49571463 222.30822206 95.17601252 C222.31189874 95.98091694 222.31557543 96.78582137 222.31936353 97.61511683 C222.33036879 100.3100028 222.33423894 103.00485015 222.33805299 105.69975519 C222.34432034 107.63347733 222.35096739 109.56719828 222.35796571 111.50091791 C222.37898749 117.85267028 222.38937079 124.20442282 222.39933228 130.5562005 C222.40338145 132.74779253 222.40749842 134.93938443 222.41168237 137.1309762 C222.430735 147.4354222 222.44496225 157.73986107 222.45329434 168.0443213 C222.46304782 179.90895194 222.48931765 191.77339508 222.52979523 203.63795972 C222.56005498 212.82551291 222.57477279 222.01301268 222.57807535 231.20061469 C222.58041585 236.67907855 222.58924442 242.15734215 222.61453652 247.6357522 C222.63799326 252.80028963 222.64198042 257.96449747 222.63177514 263.12907457 C222.63128381 265.0118665 222.63748334 266.89467564 222.65133119 268.77741671 C222.83135691 294.7324914 215.34128493 317.38842341 198.16105103 337.1343255 C197.42757447 338.0005755 196.69409791 338.8668255 195.93839478 339.7593255 C191.52345098 344.84824872 187.01315504 349.68200516 181.16105103 353.1343255 C180.50105103 353.1343255 179.84105103 353.1343255 179.16105103 353.1343255 C179.16105103 353.7943255 179.16105103 354.4543255 179.16105103 355.1343255 C163.61108876 364.36571521 148.24263994 370.94459921 129.89737916 371.73930597 C129.0619584 371.77775063 128.22653764 371.81619528 127.3658011 371.85580492 C112.88237064 372.42945592 98.36952533 372.27965827 83.87736154 372.26865101 C79.42517119 372.26608246 74.97298269 372.26847726 70.52079225 372.27003717 C63.05045151 372.27184594 55.58012072 372.26948675 48.1097815 372.2646966 C39.52784752 372.2592565 30.94593731 372.26102007 22.3640039 372.266523 C14.93659586 372.27109124 7.5091949 372.27168668 0.08178592 372.26908433 C-4.32838589 372.26754182 -8.73854659 372.26727116 -13.14871764 372.27062082 C-44.5765692 372.2909558 -44.5765692 372.2909558 -56.53621459 371.75493097 C-57.26768455 371.72511196 -57.9991545 371.69529295 -58.75279021 371.66457033 C-73.62677091 370.83463445 -87.01264409 365.36144094 -99.83894897 358.1343255 C-100.84183959 357.58260675 -101.84473022 357.030888 -102.87801147 356.4624505 C-107.56596957 353.77966622 -111.06091262 351.03025005 -114.83894897 347.1343255 C-115.86457186 346.13771551 -116.89336752 345.14436292 -117.92488647 344.15385675 C-136.99816153 325.65237767 -148.79973364 301.96389375 -149.22662902 275.04867792 C-149.25810183 271.63778687 -149.25240331 268.22768568 -149.2430017 264.81669855 C-149.24871796 262.92252945 -149.25568703 261.02836379 -149.26379943 259.13420343 C-149.28160863 254.03275565 -149.28058551 248.93148103 -149.27485704 243.83001161 C-149.27174691 239.55120801 -149.27787789 235.27243681 -149.28389579 230.99363786 C-149.29789968 220.88856899 -149.29641471 210.78358474 -149.28499389 200.67851496 C-149.27352085 190.29871822 -149.28758423 179.91918012 -149.31439036 169.53941745 C-149.33663602 160.58602317 -149.34316474 151.63270955 -149.33731395 142.67928964 C-149.33396382 137.3501942 -149.33622868 132.0212644 -149.35356498 126.69219255 C-149.36917385 121.67604536 -149.36492603 116.6602775 -149.34625983 111.64414454 C-149.34261197 109.81821556 -149.34556922 107.99225759 -149.35614562 106.16635561 C-149.51500237 76.4392333 -139.74123178 50.45061905 -118.96394897 28.8843255 C-113.9670224 24.05757291 -108.60788035 19.99141132 -102.83894897 16.1343255 C-102.06164428 15.60065363 -101.28433959 15.06698175 -100.48348022 14.517138 C-84.91200421 4.44914849 -67.24676271 1.14306818 -49.02132201 0.56840754 C-47.75782015 0.52714306 -46.49431828 0.48587858 -45.19252849 0.44336367 C-30.13101384 -0.0189523 -15.06718133 -0.01258478 0 0 Z " fill="#A8A8A8" transform="translate(259.83894896507263,507.865674495697)"/>
<path d="M0 0 C1.79992237 -0.00299714 3.59984411 -0.00640093 5.39976501 -0.01017761 C10.26153945 -0.01896522 15.12329625 -0.0213535 19.98507786 -0.0219934 C23.03008009 -0.02270686 26.07507791 -0.02484677 29.12007904 -0.02749062 C39.76446311 -0.0367266 50.40883471 -0.04082768 61.05322266 -0.04003906 C70.94100063 -0.0394387 80.82872397 -0.049987 90.71648812 -0.06578273 C99.23492317 -0.07890109 107.75334044 -0.08422116 116.2717855 -0.08358365 C121.34649567 -0.08332994 126.42115723 -0.08611101 131.49585724 -0.0967617 C136.27299539 -0.10651536 141.05003918 -0.10647259 145.82718086 -0.09924507 C147.56890312 -0.09820821 149.31063148 -0.1005079 151.05234337 -0.10660553 C175.50506877 -0.18659063 195.84922664 4.55144861 217.00683594 17.14526367 C217.00683594 17.80526367 217.00683594 18.46526367 217.00683594 19.14526367 C218.32683594 19.47526367 219.64683594 19.80526367 221.00683594 20.14526367 C221.00683594 20.80526367 221.00683594 21.46526367 221.00683594 22.14526367 C221.57273437 22.39920898 222.13863281 22.6531543 222.72167969 22.91479492 C238.84503296 31.59660053 250.57346458 52.66058145 255.81933594 69.39526367 C258.34406702 77.83975672 260.31129227 85.85382428 260.27426147 94.70593262 C260.27879259 95.51833829 260.2833237 96.33074397 260.28799212 97.167768 C260.30055549 99.86410201 260.29902098 102.56023194 260.29736328 105.2565918 C260.30335377 107.20075741 260.31016051 109.14492066 260.31771851 111.08908081 C260.33533756 116.35399701 260.3400723 121.61884813 260.34135008 126.88379097 C260.34277512 130.18040257 260.34705151 133.47699782 260.35234451 136.77360535 C260.37083473 148.29561405 260.37901682 159.81757657 260.37744141 171.33959961 C260.37624188 182.04419523 260.39730975 192.74858861 260.42892873 203.45313311 C260.45517504 212.6704987 260.46580513 221.88779862 260.46453059 231.10520124 C260.46402319 236.59812506 260.46958178 242.09086922 260.49088669 247.58375549 C260.51040903 252.75821036 260.51029884 257.93231687 260.49585342 263.10678482 C260.49378112 264.99279928 260.49837049 266.87883635 260.51057434 268.76481247 C260.60916907 285.07430381 258.49177103 299.67489132 251.00683594 314.39526367 C250.58144531 315.27827148 250.15605469 316.1612793 249.71777344 317.07104492 C247.52992393 321.52056709 245.29258898 325.39305717 242.00683594 329.14526367 C241.02151263 330.45314807 240.04189679 331.7653613 239.06933594 333.08276367 C231.33585653 343.4005465 231.33585653 343.4005465 226.00683594 347.14526367 C225.34683594 347.14526367 224.68683594 347.14526367 224.00683594 347.14526367 C224.00683594 347.80526367 224.00683594 348.46526367 224.00683594 349.14526367 C205.83055149 364.19510459 183.19765479 371.12379254 159.87792969 371.76245117 C158.00420937 371.81875198 158.00420937 371.81875198 156.09263611 371.87619019 C134.7078637 372.45429466 113.30072899 372.29433147 91.91040039 372.27563477 C86.71344862 372.2711083 81.51653179 372.27104027 76.31958008 372.27563477 C51.13608328 372.29788199 25.94971521 372.29195975 0.76901054 371.87325668 C-1.20055176 371.8417122 -3.17018832 371.8144349 -5.13987541 371.791996 C-34.89709627 371.43328991 -58.92613893 363.27919361 -80.99316406 343.14526367 C-82.11851562 342.16106445 -82.11851562 342.16106445 -83.26660156 341.15698242 C-88.99472664 335.87035315 -92.99695587 329.47054164 -96.9765625 322.83666992 C-97.87296789 321.34524424 -98.79447505 319.86896744 -99.71972656 318.39526367 C-104.40790656 310.5095045 -106.78859028 301.98563785 -108.99316406 293.14526367 C-109.2567871 292.18046837 -109.2567871 292.18046837 -109.52573586 291.19618225 C-111.64394217 282.38832262 -111.28938641 273.39249706 -111.28369141 264.39526367 C-111.28968364 262.50183347 -111.29649077 260.60840569 -111.30404663 258.71498108 C-111.3216478 253.59261401 -111.32639966 248.47031385 -111.3276782 243.34791946 C-111.32910424 240.1392371 -111.3333825 236.9305715 -111.33867264 233.72189331 C-111.35715682 222.50346811 -111.36534569 211.28509031 -111.36376953 200.06665039 C-111.36257011 189.65004633 -111.38363743 179.23365014 -111.41525686 168.81709862 C-111.44151693 159.84258244 -111.45213269 150.86813372 -111.45085871 141.89357948 C-111.45035173 136.54763088 -111.45588724 131.20186697 -111.47721481 125.85595703 C-111.49676067 120.81937318 -111.49661137 115.78314702 -111.48218155 110.74654961 C-111.48011212 108.91255602 -111.48468089 107.07853907 -111.49690247 105.24458504 C-111.59164625 90.0243743 -109.86224632 75.15327044 -103.61816406 61.08276367 C-103.16654907 60.02968018 -103.16654907 60.02968018 -102.70581055 58.95532227 C-100.33858172 53.58777577 -97.52891212 48.83077821 -93.99316406 44.14526367 C-93.3525 43.2197168 -92.71183594 42.29416992 -92.05175781 41.34057617 C-88.41522363 36.13764112 -85.04873596 31.9650291 -79.99316406 28.14526367 C-79.10628906 27.23776367 -78.21941406 26.33026367 -77.30566406 25.39526367 C-74.99316406 23.14526367 -74.99316406 23.14526367 -71.99316406 22.14526367 C-71.49816406 20.66026367 -71.49816406 20.66026367 -70.99316406 19.14526367 C-69.10253906 17.86401367 -69.10253906 17.86401367 -66.74316406 16.64526367 C-65.92847656 16.2147168 -65.11378906 15.78416992 -64.27441406 15.34057617 C-63.52160156 14.94612305 -62.76878906 14.55166992 -61.99316406 14.14526367 C-59.572543 12.71489668 -57.18720177 11.27403415 -54.84472656 9.71948242 C-51.40345249 7.81971057 -47.86658205 6.69327629 -44.11816406 5.58276367 C-43.43625 5.37458008 -42.75433594 5.16639648 -42.05175781 4.9519043 C-40.68560654 4.53685453 -39.31741271 4.12846888 -37.94726562 3.72680664 C-36.17958398 3.20074246 -34.42516956 2.63059254 -32.67285156 2.05541992 C-22.04441119 -0.57348306 -10.87887768 -0.00363419 0 0 Z " fill="#323232" transform="translate(221.9931640625,98.854736328125)"/>
<path d="M0 0 C2.16172802 -0.00067519 4.32345596 -0.001647 6.48518372 -0.00289917 C11.00290657 -0.0043676 15.52060955 -0.00225023 20.03833008 0.00244141 C25.78258706 0.00812096 31.52679712 0.00486546 37.27105236 -0.00113106 C41.73332562 -0.00477452 46.19558809 -0.00358055 50.65786171 -0.00100327 C52.77341022 -0.00034353 54.88895976 -0.00112843 57.00450706 -0.00348282 C73.2016275 -0.01754987 89.40612457 -0.0310969 105.39453125 2.8828125 C106.37180176 3.0583667 107.34907227 3.2339209 108.35595703 3.41479492 C116.47838982 4.94537046 124.05860712 7.11694727 131.76953125 10.1328125 C132.78539307 10.52557373 132.78539307 10.52557373 133.82177734 10.92626953 C149.5553557 17.04866038 163.93543688 24.43748172 177.76953125 34.1328125 C178.33994141 34.52742676 178.91035156 34.92204102 179.49804688 35.32861328 C186.32800956 40.0618336 186.32800956 40.0618336 188.76953125 42.1328125 C188.76953125 42.7928125 188.76953125 43.4528125 188.76953125 44.1328125 C189.35734375 44.40480469 189.94515625 44.67679688 190.55078125 44.95703125 C196.04099614 47.8664585 199.95241394 52.33063266 203.76953125 57.1328125 C205.15205078 58.24462891 205.15205078 58.24462891 206.5625 59.37890625 C209.89637406 62.11388684 212.43703578 65.19745587 215.01953125 68.6328125 C215.45265625 69.18839844 215.88578125 69.74398437 216.33203125 70.31640625 C218.72302925 73.45274622 220.51257884 76.38988755 221.76953125 80.1328125 C222.42953125 80.1328125 223.08953125 80.1328125 223.76953125 80.1328125 C225.06640625 81.93359375 225.06640625 81.93359375 226.51953125 84.4453125 C227.04675781 85.3528125 227.57398438 86.2603125 228.1171875 87.1953125 C230.24207001 90.97288141 232.32690065 94.77011025 234.375 98.58984375 C235.28769581 100.25417141 236.25032747 101.89229478 237.265625 103.49609375 C239.09825097 106.70913928 240.38272825 110.04364331 241.64453125 113.5078125 C242.03088745 114.55630371 242.03088745 114.55630371 242.42504883 115.62597656 C248.0911104 131.12355253 252.78740701 146.18916445 254.45703125 162.6953125 C254.58223145 163.92620605 254.70743164 165.15709961 254.83642578 166.42529297 C257.26194279 191.66716999 255.46368973 216.86578441 247.76953125 241.1328125 C247.54394531 241.85758789 247.31835938 242.58236328 247.0859375 243.32910156 C242.25984355 258.59128284 235.09991787 272.49274252 226.76953125 286.1328125 C225.81820312 287.70869141 225.81820312 287.70869141 224.84765625 289.31640625 C221.26069293 295.13410503 221.26069293 295.13410503 219.76953125 297.1328125 C219.10953125 297.1328125 218.44953125 297.1328125 217.76953125 297.1328125 C217.55425781 297.65488281 217.33898437 298.17695313 217.1171875 298.71484375 C215.22239211 302.11449114 212.75417611 304.89066259 210.20703125 307.8203125 C209.66546387 308.44462158 209.12389648 309.06893066 208.56591797 309.7121582 C197.0835067 322.84582371 183.95644624 333.06697131 169.76953125 343.1328125 C169.15207031 343.58785156 168.53460937 344.04289062 167.8984375 344.51171875 C164.78628793 346.73911757 163.79031048 347.1328125 159.76953125 347.1328125 C159.76953125 347.7928125 159.76953125 348.4528125 159.76953125 349.1328125 C127.78934365 365.08672962 97.67784708 371.21107961 62.14453125 371.7578125 C60.05582165 371.79512186 57.96711725 371.83272321 55.87841797 371.87060547 C39.17461508 372.16057 22.47536013 372.34957999 5.76953125 372.1328125 C4.7250885 372.1199118 4.7250885 372.1199118 3.6595459 372.10675049 C-0.75852832 372.04972792 -5.17558522 371.97120536 -9.59283447 371.86834717 C-11.63579518 371.8224399 -13.67898686 371.78718173 -15.72216797 371.75244141 C-28.02710874 371.40773461 -40.15030042 369.76737576 -51.66796875 365.2578125 C-52.32410156 365.00241699 -52.98023438 364.74702148 -53.65625 364.48388672 C-58.75886335 362.44813559 -63.57935836 360.05267625 -68.23046875 357.1328125 C-68.23046875 356.4728125 -68.23046875 355.8128125 -68.23046875 355.1328125 C-69.28234375 354.7615625 -69.28234375 354.7615625 -70.35546875 354.3828125 C-73.62561423 352.96101012 -76.37159075 351.26034962 -79.23046875 349.1328125 C-79.23046875 348.4728125 -79.23046875 347.8128125 -79.23046875 347.1328125 C-80.22046875 347.1328125 -81.21046875 347.1328125 -82.23046875 347.1328125 C-83.45617466 345.70834347 -84.6743765 344.27544395 -85.82421875 342.7890625 C-87.2708363 341.08526849 -88.77837068 339.81037893 -90.54296875 338.4453125 C-91.87328125 337.300625 -91.87328125 337.300625 -93.23046875 336.1328125 C-93.23046875 335.1428125 -93.23046875 334.1528125 -93.23046875 333.1328125 C-94.22046875 332.8028125 -95.21046875 332.4728125 -96.23046875 332.1328125 C-97.66015625 330.1640625 -97.66015625 330.1640625 -99.10546875 327.6328125 C-99.62625 326.7253125 -100.14703125 325.8178125 -100.68359375 324.8828125 C-101.1940625 323.9753125 -101.70453125 323.0678125 -102.23046875 322.1328125 C-102.90335938 320.988125 -102.90335938 320.988125 -103.58984375 319.8203125 C-113.65491408 302.42389464 -115.83415432 284.60909964 -115.875 264.87890625 C-115.89321364 262.81017219 -115.9129508 260.74145107 -115.93408203 258.67274475 C-115.98512828 253.12340022 -116.01076021 247.57422568 -116.02960587 242.02468872 C-116.04302616 238.55547282 -116.06303802 235.08635729 -116.08529663 231.6171875 C-116.19268068 214.78902525 -116.23161128 197.96129922 -116.23046875 181.1328125 C-116.23054932 179.9599192 -116.23062988 178.78702591 -116.23071289 177.57859039 C-116.2296312 161.96912836 -116.17397754 146.36069434 -116.06292343 130.75163651 C-116.0430944 127.65245087 -116.02970195 124.55329702 -116.01797485 121.45407104 C-115.99811611 116.57534768 -115.95780247 111.69719405 -115.9019165 106.8187542 C-115.88439657 105.05013639 -115.87307612 103.28144271 -115.868927 101.512743 C-115.82243647 85.71733012 -113.59567758 71.32374034 -106.23046875 57.1328125 C-105.86695313 56.38386719 -105.5034375 55.63492188 -105.12890625 54.86328125 C-103.34219517 51.18756647 -101.5487231 47.50481883 -99.23046875 44.1328125 C-98.57046875 44.1328125 -97.91046875 44.1328125 -97.23046875 44.1328125 C-97.13572266 43.31876953 -97.13572266 43.31876953 -97.0390625 42.48828125 C-95.89301583 39.14979748 -93.67744556 36.95971272 -91.29296875 34.4453125 C-90.79861328 33.91784424 -90.30425781 33.39037598 -89.79492188 32.84692383 C-64.07928466 5.73137724 -36.04114047 -0.03988812 0 0 Z " fill="#727272" transform="translate(636.23046875,98.8671875)"/>
<path d="M0 0 C7.75769143 -0.0003499 15.51533824 -0.01203067 23.27301556 -0.02593428 C30.8699876 -0.03905105 38.4669398 -0.04437333 46.06392306 -0.04373521 C50.55289024 -0.04348302 55.04180226 -0.04618213 59.53075778 -0.05691326 C63.72157863 -0.06667475 67.91229197 -0.06661913 72.10311687 -0.05939662 C73.62353285 -0.05836334 75.14395591 -0.06063737 76.66435993 -0.06675708 C91.82752468 -0.12378662 106.65642594 0.2019349 119.9617213 8.18511212 C119.9617213 8.84511212 119.9617213 9.50511212 119.9617213 10.18511212 C120.5598463 10.47386212 121.1579713 10.76261212 121.7742213 11.06011212 C123.9617213 12.18511212 123.9617213 12.18511212 126.9617213 14.18511212 C126.9617213 15.17511212 126.9617213 16.16511212 126.9617213 17.18511212 C127.9517213 17.51511212 128.9417213 17.84511212 129.9617213 18.18511212 C136.64638815 28.00321656 138.06946261 38.46253099 136.9617213 50.18511212 C133.22770983 66.94029182 120.54868441 77.75098487 108.82814586 89.45240033 C107.72796215 90.55445654 106.62799357 91.65672755 105.52821922 92.75919229 C102.53148093 95.76200006 99.53167528 98.76172644 96.53130877 101.76090837 C93.28616902 105.00584289 90.04389971 108.25364349 86.80122936 111.50104535 C80.45958848 117.8509649 74.115198 124.19813021 67.76969598 130.5441911 C62.61241228 135.70195096 57.4559211 140.86050182 52.29998195 146.01960576 C37.67111854 160.65726544 23.04017097 175.29283732 8.40653323 189.92572401 C7.6189201 190.71329718 6.83130697 191.50087036 6.01982677 192.31230938 C5.23124893 193.10084635 4.44267108 193.88938331 3.63019694 194.70181533 C-9.16584145 207.49744677 -21.95687673 220.29806667 -34.74566723 233.10094175 C-47.88764223 246.25727585 -61.03333746 259.40988253 -74.18292618 272.55860692 C-81.56136299 279.93671178 -88.93825249 287.31634852 -96.31114018 294.69999897 C-102.5838135 300.98177077 -108.85993142 307.26007555 -115.1405523 313.53390167 C-118.34393702 316.73401891 -121.54568941 319.93572543 -124.74310505 323.14180768 C-127.67112086 326.07767828 -130.60373084 329.00887743 -133.54003714 331.93645563 C-134.60017752 332.99505887 -135.65863903 334.05534671 -136.71522202 335.11750058 C-148.10766175 346.56601035 -157.81058804 353.98060414 -174.4132787 354.37261212 C-186.3141608 354.22608963 -196.17637075 350.14129401 -205.0382787 342.18511212 C-217.07694007 329.63155892 -216.62049423 315.83314541 -216.55585682 299.45024884 C-216.56128278 297.14125897 -216.5684081 294.83227256 -216.57709706 292.52329266 C-216.59528284 286.27291507 -216.58828068 280.02280256 -216.57558072 273.77242053 C-216.56542123 267.21272192 -216.57485525 260.65304531 -216.58112538 254.09334576 C-216.5896599 242.36763702 -216.57645844 230.64203919 -216.55608803 218.91634966 C-216.53824411 208.31772655 -216.54130256 197.71927889 -216.55976307 187.12065899 C-216.58124857 174.77975856 -216.58909327 162.43896982 -216.57731402 150.09805322 C-216.57110489 143.57790568 -216.5701714 137.05787853 -216.58345997 130.53773892 C-216.59509629 124.3996575 -216.58685148 118.26190397 -216.56388295 112.12385762 C-216.5586358 109.88308961 -216.56004025 107.64229356 -216.56893361 105.40153706 C-216.63032104 88.34951107 -215.26105643 73.00981344 -207.2882787 57.62261212 C-206.67146229 56.37834454 -206.67146229 56.37834454 -206.04218495 55.10894024 C-205.05635863 53.12582451 -204.05580496 51.1520907 -203.0382787 49.18511212 C-202.3782787 49.18511212 -201.7182787 49.18511212 -201.0382787 49.18511212 C-200.9557787 48.64886212 -200.8732787 48.11261212 -200.7882787 47.56011212 C-199.76246599 44.31170521 -198.07263976 41.89759353 -196.0382787 39.18511212 C-195.3782787 39.18511212 -194.7182787 39.18511212 -194.0382787 39.18511212 C-193.9557787 38.60761212 -193.8732787 38.03011212 -193.7882787 37.43511212 C-192.82030083 34.53117852 -191.35133586 33.14770608 -189.0382787 31.18511212 C-188.3782787 31.18511212 -187.7182787 31.18511212 -187.0382787 31.18511212 C-186.7082787 30.19511212 -186.3782787 29.20511212 -186.0382787 28.18511212 C-176.06542919 17.6654484 -163.11231071 10.77654125 -149.58124745 6.07964337 C-147.9430614 5.50338437 -146.32068991 4.87883097 -144.72350514 4.19712079 C-133.36978631 -0.08187099 -120.08823736 0.74814614 -108.14374745 0.57183087 C-107.08104319 0.55351397 -106.01833893 0.53519707 -104.92343152 0.51632512 C-69.95386829 -0.08241317 -34.97347556 -0.00232672 0 0 Z " fill="#D1D1D1" transform="translate(737.0382786989212,507.814887881279)"/>
<path d="M0 0 C33.99 0 67.98 0 103 0 C100.09915696 2.90084304 97.07314574 2.35510496 93.1796875 2.4140625 C92.38035797 2.43347397 91.58102844 2.45288544 90.75747681 2.47288513 C88.13009498 2.53358753 85.50268857 2.57967148 82.875 2.625 C81.06965182 2.66287344 79.26431323 2.70120672 77.45898438 2.73999023 C61.30632014 3.06780287 45.15518477 3.11133238 29 3 C29 2.34 29 1.68 29 1 C19.43 1 9.86 1 0 1 C0 0.67 0 0.34 0 0 Z " fill="#666666" transform="translate(613,468)"/>
<path d="M0 0 C-2.0179153 6.05374591 -9.11414825 9.0939124 -14.578125 11.87109375 C-25.29488507 17.09654086 -35.9545047 21.46701348 -48 22 C-48 21.34 -48 20.68 -48 20 C-46.82566406 19.731875 -45.65132813 19.46375 -44.44140625 19.1875 C-29.6105055 15.64148608 -15.98466549 10.62458 -3.78515625 1.25 C-2 0 -2 0 0 0 Z " fill="#1E1E1E" transform="translate(444,447)"/>
<path d="M0 0 C1 3 1 3 0.28515625 5.09375 C-5.11085031 15.71336674 -12.76070888 28.35829765 -23 35 C-23.99 34.67 -24.98 34.34 -26 34 C-25.18917969 33.25878906 -24.37835938 32.51757812 -23.54296875 31.75390625 C-13.72361349 22.50996789 -5.93710863 12.14705311 0 0 Z " fill="#212121" transform="translate(471,411)"/>
<path d="M0 0 C-3.64209613 2.42806409 -7.22801728 3.15343821 -11.4375 4.0625 C-12.64116211 4.32474365 -12.64116211 4.32474365 -13.86914062 4.59228516 C-26.8743157 7.32816166 -26.8743157 7.32816166 -33 7 C-33.66 6.34 -34.32 5.68 -35 5 C-34.00987915 4.83395264 -34.00987915 4.83395264 -32.99975586 4.66455078 C-29.97829863 4.1554563 -26.95790851 3.6402784 -23.9375 3.125 C-22.89916016 2.95097656 -21.86082031 2.77695312 -20.79101562 2.59765625 C-14.30302919 1.48939398 -14.30302919 1.48939398 -7.9375 -0.15625 C-4.80828304 -1.05506764 -3.08255079 -0.9341063 0 0 Z " fill="#676767" transform="translate(760,462)"/>
<path d="M0 0 C6.32309648 0.6847593 10.16911703 7.48954124 14 12 C14.66644531 12.78117188 15.33289063 13.56234375 16.01953125 14.3671875 C19.12432383 18.22091131 19.12432383 18.22091131 20 20 C19.64453125 22.22265625 19.64453125 22.22265625 19 24 C18.07380859 22.64068359 18.07380859 22.64068359 17.12890625 21.25390625 C12.41772799 14.44356771 7.69471928 8.26270438 1.6171875 2.57421875 C1.08351563 2.05472656 0.54984375 1.53523438 0 1 C0 0.67 0 0.34 0 0 Z " fill="#252525" transform="translate(447,125)"/>
<path d="M0 0 C0 0.99 0 1.98 0 3 C-4.96395053 7.86223024 -11.5372881 13.26864601 -18 16 C-18.99 15.67 -19.98 15.34 -21 15 C-14.05611112 9.91749578 -7.06910642 4.90697192 0 0 Z " fill="#6A6A6A" transform="translate(822,427)"/>
<path d="M0 0 C3.52648783 1.69476842 6.8767124 3.64502684 10.25 5.625 C11.32765625 6.25664062 12.4053125 6.88828125 13.515625 7.5390625 C14.74539062 8.26222656 14.74539062 8.26222656 16 9 C15.01 9.66 14.02 10.32 13 11 C11.20094076 9.92898814 9.41096904 8.84270085 7.625 7.75 C6.62726563 7.14671875 5.62953125 6.5434375 4.6015625 5.921875 C2.0492897 4.03641221 1.07523113 2.92773776 0 0 Z " fill="#232323" transform="translate(151,448)"/>
<path d="M0 0 C0.99 0.33 1.98 0.66 3 1 C-1.95 7.435 -1.95 7.435 -7 14 C-7.33 13.01 -7.66 12.02 -8 11 C-6.34765625 8.30078125 -6.34765625 8.30078125 -4.0625 5.3125 C-3.31097656 4.31863281 -2.55945313 3.32476562 -1.78515625 2.30078125 C-1.19605469 1.54152344 -0.60695312 0.78226563 0 0 Z " fill="#2B2B2B" transform="translate(136,132)"/>
<path d="M0 0 C3.74105716 3.74105716 5.87399007 8.23586099 6.25 13.5 C6.1675 14.325 6.085 15.15 6 16 C2.7571671 12.27074217 0.4880099 7.69761265 -1 3 C-0.67 2.01 -0.34 1.02 0 0 Z " fill="#232323" transform="translate(469,150)"/>
<path d="M0 0 C10.55808656 0.96355353 10.55808656 0.96355353 15 2 C15 2.66 15 3.32 15 4 C13.24967156 3.85816304 11.49974466 3.71136571 9.75 3.5625 C8.77546875 3.48128906 7.8009375 3.40007812 6.796875 3.31640625 C4.43538247 3.04925416 2.28098935 2.64628032 0 2 C0 1.34 0 0.68 0 0 Z " fill="#626262" transform="translate(593,465)"/>
<path d="M0 0 C-2.48830503 2.48830503 -4.8677934 3.30825691 -8.125 4.625 C-9.22070312 5.07101562 -10.31640625 5.51703125 -11.4453125 5.9765625 C-12.28835938 6.31429688 -13.13140625 6.65203125 -14 7 C-14.33 6.34 -14.66 5.68 -15 5 C-13.06891037 3.96709159 -11.129882 2.94901328 -9.1875 1.9375 C-8.10855469 1.36902344 -7.02960937 0.80054688 -5.91796875 0.21484375 C-3 -1 -3 -1 0 0 Z " fill="#696969" transform="translate(794,448)"/>
<path d="M0 0 C10.55808656 3.07517084 10.55808656 3.07517084 15 5 C15 5.33 15 5.66 15 6 C9.33557626 5.63495936 4.99296295 4.9445679 0 2 C0 1.34 0 0.68 0 0 Z " fill="#252525" transform="translate(169,459)"/>
<path d="M0 0 C-1.42859407 1.03325986 -2.86822383 2.05127634 -4.3125 3.0625 C-5.51326172 3.91521484 -5.51326172 3.91521484 -6.73828125 4.78515625 C-7.48464844 5.18605469 -8.23101562 5.58695312 -9 6 C-9.99 5.67 -10.98 5.34 -12 5 C-9.65993466 0.31986932 -4.73095416 -1.63964637 0 0 Z " fill="#252525" transform="translate(162,115)"/>
<path d="M0 0 C0 0.99 0 1.98 0 3 C-1.75 4.60546875 -1.75 4.60546875 -4 6.1875 C-4.7425 6.71730469 -5.485 7.24710937 -6.25 7.79296875 C-6.8275 8.19128906 -7.405 8.58960938 -8 9 C-8 8.01 -8 7.02 -8 6 C-6.25 4.39453125 -6.25 4.39453125 -4 2.8125 C-3.2575 2.28269531 -2.515 1.75289063 -1.75 1.20703125 C-1.1725 0.80871094 -0.595 0.41039062 0 0 Z " fill="#636363" transform="translate(822,427)"/>
<path d="M0 0 C2.12038635 2.61514317 4.13091744 5.19637616 6 8 C5.67 8.99 5.34 9.98 5 11 C3.02 8.03 1.04 5.06 -1 2 C-0.67 1.34 -0.34 0.68 0 0 Z " fill="#252525" transform="translate(127,421)"/>
<path d="M0 0 C0.66 0.33 1.32 0.66 2 1 C0.68775452 4.93673644 -0.91910327 7.22719294 -4 10 C-4 6.89448334 -3.4606285 5.64738916 -2 3 C-1.34 3 -0.68 3 0 3 C0 2.01 0 1.02 0 0 Z " fill="#606060" transform="translate(539,140)"/>
<path d="M0 0 C1.32 0.66 2.64 1.32 4 2 C4 2.66 4 3.32 4 4 C5.32 4.33 6.64 4.66 8 5 C7.34 5.66 6.68 6.32 6 7 C3.36 5.35 0.72 3.7 -2 2 C-1.34 1.34 -0.68 0.68 0 0 Z " fill="#1F1F1F" transform="translate(435,114)"/>
<path d="M0 0 C0.66 0.66 1.32 1.32 2 2 C0.35 4.31 -1.3 6.62 -3 9 C-3.66 8.34 -4.32 7.68 -5 7 C-3.35 4.69 -1.7 2.38 0 0 Z " fill="#A2A2A2" transform="translate(132,547)"/>
<path d="M0 0 C0.66 0.66 1.32 1.32 2 2 C-0.64 3.65 -3.28 5.3 -6 7 C-6.33 6.34 -6.66 5.68 -7 5 C-4.69 3.35 -2.38 1.7 0 0 Z " fill="#9F9F9F" transform="translate(157,524)"/>
<path d="M0 0 C-3.08888522 2.05925681 -3.70935927 2.2390374 -7.1875 2.125 C-9.0746875 2.063125 -9.0746875 2.063125 -11 2 C-6.80312837 -0.79791442 -4.79748656 -1.16695619 0 0 Z " fill="#5E5E5E" transform="translate(760,462)"/>
<path d="M0 0 C2.31 1.98 4.62 3.96 7 6 C6.34 6.66 5.68 7.32 5 8 C2.5 5.6875 2.5 5.6875 0 3 C0 2.01 0 1.02 0 0 Z " fill="#1E1E1E" transform="translate(135,433)"/>
<path d="M0 0 C0.66 0.66 1.32 1.32 2 2 C0.35 3.65 -1.3 5.3 -3 7 C-3.99 6.67 -4.98 6.34 -6 6 C-4.02 4.02 -2.04 2.04 0 0 Z " fill="#656565" transform="translate(836,414)"/>
<path d="M0 0 C1 3 1 3 0.22265625 5.04296875 C-0.16019531 5.75066406 -0.54304688 6.45835937 -0.9375 7.1875 C-1.31777344 7.90292969 -1.69804687 8.61835938 -2.08984375 9.35546875 C-2.54037109 10.16951172 -2.54037109 10.16951172 -3 11 C-3.83583327 8.62392051 -4.1842383 7.45550373 -3.22265625 5.078125 C-1.61132812 2.5390625 -1.61132812 2.5390625 0 0 Z " fill="#242424" transform="translate(471,411)"/>
<path d="M0 0 C2.97 0.99 5.94 1.98 9 3 C8.01 3.66 7.02 4.32 6 5 C2.3125 3.625 2.3125 3.625 -1 2 C-0.67 1.34 -0.34 0.68 0 0 Z " fill="#585858" transform="translate(576,458)"/>
<path d="M0 0 C2.6855594 2.6855594 3.06049974 5.37621328 4 9 C3.01 8.67 2.02 8.34 1 8 C-0.1875 4.4375 -0.1875 4.4375 -1 1 C-0.67 0.67 -0.34 0.34 0 0 Z " fill="#262626" transform="translate(117,400)"/>
<path d="M0 0 C0.66 1.32 1.32 2.64 2 4 C1.07451225 6.69933926 0.57626463 7.71186768 -2 9 C-1.34 6.03 -0.68 3.06 0 0 Z " fill="#1C1C1C" transform="translate(477,394)"/>
<path d="M0 0 C0.99 0.33 1.98 0.66 3 1 C3 1.66 3 2.32 3 3 C4.32 3.66 5.64 4.32 7 5 C6.34 5.66 5.68 6.32 5 7 C3.02 5.35 1.04 3.7 -1 2 C-0.67 1.34 -0.34 0.68 0 0 Z " fill="#5E5E5E" transform="translate(822,140)"/>
<path d="M0 0 C0.99 0.33 1.98 0.66 3 1 C1.35 2.98 -0.3 4.96 -2 7 C-2.66 6.34 -3.32 5.68 -4 5 C-2.68 3.35 -1.36 1.7 0 0 Z " fill="#212121" transform="translate(136,132)"/>
<path d="M0 0 C0.66 0.33 1.32 0.66 2 1 C1.67 2.98 1.34 4.96 1 7 C0.34 7 -0.32 7 -1 7 C-1.04254356 5.00045254 -1.04080783 2.99958364 -1 1 C-0.67 0.67 -0.34 0.34 0 0 Z " fill="#232323" transform="translate(480,380)"/>
<path d="M0 0 C0.99 0.33 1.98 0.66 3 1 C3.625 3.875 3.625 3.875 4 7 C3.34 7.66 2.68 8.32 2 9 C1.34 6.03 0.68 3.06 0 0 Z " fill="#1A1A1A" transform="translate(475,167)"/>
</svg>
